# xmcd
#
# Track frame offsets:
#	150
#	20840
#	42915
#	62695
#	85150
#	118215
#	156572
#	183610
#
# Disc length: 2836
#
# Revision: 3
# Processed by: cddbd v1.5.1PL0 Copyright (c) Steve Scherf et al.
# Submitted via: EasyCDDAExtractor 5.0.7
# Normalized: r2:DSETVAR1
#
DISCID=700b1208
DTITLE=Various Artist - Alright (The Remix)
DYEAR=1990
DGENRE=Pop
TTITLE0=Janet Jackson And Heavy D. - Alright(7 Inch Remix)
TTITLE1=Janet Jackson And Heavy D. - Alright(7 Inch R And B Mix)
TTITLE2=Janet Jackson - Alright(7 Inch House Mix)
TTITLE3=Janet Jackson And Heavy D. - Alright(7 Inch House Mix)
TTITLE4=Janet Jackson And Heavy D. - Alright(12 Inch R And B Mix)
TTITLE5=Janet Jackson And Heavy D. - Alright(12 Inch House Mix)
TTITLE6=Janet Jackson - Alright(House Dub)
TTITLE7=Janet Jackson - Alright(LP Version)
EXTD=
EXTT0=
EXTT1=
EXTT2=
EXTT3=
EXTT4=
EXTT5=
EXTT6=
EXTT7=
PLAYORDER=
